<mxfile host="Electron" modified="2023-08-07T06:25:58.906Z" agent="Mozilla/5.0 (Windows NT 10.0; Win64; x64) AppleWebKit/537.36 (KHTML, like Gecko) draw.io/21.6.5 Chrome/114.0.5735.243 Electron/25.3.1 Safari/537.36" etag="FRlzLGRPYU5DDJYqy2mI" version="21.6.5" type="device">
  <diagram name="Страница 1" id="cTMR5VHDAyLMnO9CK7PR">
    <mxGraphModel dx="1418" dy="843" grid="1" gridSize="10" guides="1" tooltips="1" connect="1" arrows="1" fold="1" page="1" pageScale="1" pageWidth="1169" pageHeight="827" math="0" shadow="0">
      <root>
        <mxCell id="0" />
        <mxCell id="1" parent="0" />
        <mxCell id="2eMlXJKE9RkkuXGHtKKb-72" value="" style="rounded=0;whiteSpace=wrap;html=1;fillColor=none;" parent="1" vertex="1">
          <mxGeometry x="60" y="540" width="590" height="230" as="geometry" />
        </mxCell>
        <mxCell id="2eMlXJKE9RkkuXGHtKKb-52" value="" style="rounded=0;whiteSpace=wrap;html=1;fillColor=none;" parent="1" vertex="1">
          <mxGeometry x="600" y="60" width="550" height="420" as="geometry" />
        </mxCell>
        <mxCell id="2eMlXJKE9RkkuXGHtKKb-51" value="" style="rounded=0;whiteSpace=wrap;html=1;fillColor=none;" parent="1" vertex="1">
          <mxGeometry x="60" y="258" width="350" height="222" as="geometry" />
        </mxCell>
        <mxCell id="2eMlXJKE9RkkuXGHtKKb-50" value="" style="rounded=0;whiteSpace=wrap;html=1;fillColor=none;" parent="1" vertex="1">
          <mxGeometry x="60" y="60" width="350" height="110" as="geometry" />
        </mxCell>
        <mxCell id="2eMlXJKE9RkkuXGHtKKb-11" style="edgeStyle=orthogonalEdgeStyle;rounded=0;orthogonalLoop=1;jettySize=auto;html=1;exitX=1;exitY=0.5;exitDx=0;exitDy=0;entryX=0;entryY=0.5;entryDx=0;entryDy=0;" parent="1" source="2eMlXJKE9RkkuXGHtKKb-9" target="2eMlXJKE9RkkuXGHtKKb-10" edge="1">
          <mxGeometry relative="1" as="geometry" />
        </mxCell>
        <mxCell id="2eMlXJKE9RkkuXGHtKKb-14" value="has one" style="edgeLabel;html=1;align=center;verticalAlign=middle;resizable=0;points=[];" parent="2eMlXJKE9RkkuXGHtKKb-11" vertex="1" connectable="0">
          <mxGeometry x="-0.2" y="-3" relative="1" as="geometry">
            <mxPoint x="8" y="-13" as="offset" />
          </mxGeometry>
        </mxCell>
        <mxCell id="2eMlXJKE9RkkuXGHtKKb-17" style="edgeStyle=orthogonalEdgeStyle;orthogonalLoop=1;jettySize=auto;html=1;exitX=0.5;exitY=1;exitDx=0;exitDy=0;entryX=0.5;entryY=0;entryDx=0;entryDy=0;rounded=0;strokeColor=default;endArrow=blockThin;endFill=0;startArrow=blockThin;startFill=0;dashed=1;" parent="1" source="2eMlXJKE9RkkuXGHtKKb-9" target="2eMlXJKE9RkkuXGHtKKb-13" edge="1">
          <mxGeometry relative="1" as="geometry">
            <Array as="points">
              <mxPoint x="140" y="200" />
              <mxPoint x="340" y="200" />
            </Array>
          </mxGeometry>
        </mxCell>
        <mxCell id="2eMlXJKE9RkkuXGHtKKb-39" style="edgeStyle=orthogonalEdgeStyle;rounded=0;orthogonalLoop=1;jettySize=auto;html=1;exitX=0.75;exitY=1;exitDx=0;exitDy=0;entryX=0;entryY=0.5;entryDx=0;entryDy=0;startArrow=blockThin;startFill=0;endArrow=blockThin;endFill=0;dashed=1;" parent="1" source="2eMlXJKE9RkkuXGHtKKb-9" target="2eMlXJKE9RkkuXGHtKKb-35" edge="1">
          <mxGeometry relative="1" as="geometry">
            <Array as="points">
              <mxPoint x="170" y="190" />
              <mxPoint x="500" y="190" />
              <mxPoint x="500" y="110" />
            </Array>
          </mxGeometry>
        </mxCell>
        <mxCell id="2eMlXJKE9RkkuXGHtKKb-64" style="edgeStyle=orthogonalEdgeStyle;rounded=0;orthogonalLoop=1;jettySize=auto;html=1;exitX=0.25;exitY=1;exitDx=0;exitDy=0;entryX=0;entryY=0.5;entryDx=0;entryDy=0;endArrow=blockThin;endFill=0;startArrow=blockThin;startFill=0;dashed=1;" parent="1" source="2eMlXJKE9RkkuXGHtKKb-9" target="2eMlXJKE9RkkuXGHtKKb-56" edge="1">
          <mxGeometry relative="1" as="geometry">
            <Array as="points">
              <mxPoint x="110" y="200" />
              <mxPoint x="40" y="200" />
              <mxPoint x="40" y="590" />
            </Array>
          </mxGeometry>
        </mxCell>
        <mxCell id="2eMlXJKE9RkkuXGHtKKb-9" value="User" style="rounded=0;whiteSpace=wrap;html=1;" parent="1" vertex="1">
          <mxGeometry x="80" y="80" width="120" height="60" as="geometry" />
        </mxCell>
        <mxCell id="2eMlXJKE9RkkuXGHtKKb-10" value="Role" style="rounded=0;whiteSpace=wrap;html=1;" parent="1" vertex="1">
          <mxGeometry x="280" y="80" width="120" height="60" as="geometry" />
        </mxCell>
        <mxCell id="2eMlXJKE9RkkuXGHtKKb-15" style="edgeStyle=orthogonalEdgeStyle;rounded=0;orthogonalLoop=1;jettySize=auto;html=1;exitX=1;exitY=0.5;exitDx=0;exitDy=0;entryX=0;entryY=0.5;entryDx=0;entryDy=0;" parent="1" source="2eMlXJKE9RkkuXGHtKKb-12" target="2eMlXJKE9RkkuXGHtKKb-13" edge="1">
          <mxGeometry relative="1" as="geometry" />
        </mxCell>
        <mxCell id="2eMlXJKE9RkkuXGHtKKb-16" value="belongs to" style="edgeLabel;html=1;align=center;verticalAlign=middle;resizable=0;points=[];" parent="2eMlXJKE9RkkuXGHtKKb-15" vertex="1" connectable="0">
          <mxGeometry x="-0.05" y="1" relative="1" as="geometry">
            <mxPoint y="-9" as="offset" />
          </mxGeometry>
        </mxCell>
        <mxCell id="2eMlXJKE9RkkuXGHtKKb-31" style="edgeStyle=orthogonalEdgeStyle;rounded=0;orthogonalLoop=1;jettySize=auto;html=1;exitX=0;exitY=1;exitDx=0;exitDy=0;entryX=-0.06;entryY=0.5;entryDx=0;entryDy=0;entryPerimeter=0;endArrow=none;endFill=0;" parent="1" source="2eMlXJKE9RkkuXGHtKKb-12" target="2eMlXJKE9RkkuXGHtKKb-23" edge="1">
          <mxGeometry relative="1" as="geometry">
            <mxPoint x="80" y="420" as="targetPoint" />
            <Array as="points">
              <mxPoint x="80" y="414" />
            </Array>
          </mxGeometry>
        </mxCell>
        <mxCell id="2eMlXJKE9RkkuXGHtKKb-65" style="edgeStyle=orthogonalEdgeStyle;rounded=0;orthogonalLoop=1;jettySize=auto;html=1;exitX=0.75;exitY=1;exitDx=0;exitDy=0;entryX=0.5;entryY=0;entryDx=0;entryDy=0;endArrow=blockThin;endFill=0;startArrow=blockThin;startFill=0;dashed=1;" parent="1" source="2eMlXJKE9RkkuXGHtKKb-12" target="2eMlXJKE9RkkuXGHtKKb-58" edge="1">
          <mxGeometry relative="1" as="geometry">
            <Array as="points">
              <mxPoint x="170" y="380" />
              <mxPoint x="340" y="380" />
            </Array>
          </mxGeometry>
        </mxCell>
        <mxCell id="Ur6JNkduuCommPyrhhBe-2" style="edgeStyle=orthogonalEdgeStyle;rounded=0;orthogonalLoop=1;jettySize=auto;html=1;exitX=1;exitY=0.75;exitDx=0;exitDy=0;entryX=0.25;entryY=1;entryDx=0;entryDy=0;jumpStyle=arc;dashed=1;startArrow=blockThin;startFill=0;endArrow=blockThin;endFill=0;" edge="1" parent="1" source="2eMlXJKE9RkkuXGHtKKb-12" target="Ur6JNkduuCommPyrhhBe-1">
          <mxGeometry relative="1" as="geometry">
            <Array as="points">
              <mxPoint x="220" y="325" />
              <mxPoint x="220" y="370" />
              <mxPoint x="505" y="370" />
              <mxPoint x="505" y="500" />
              <mxPoint x="850" y="500" />
            </Array>
          </mxGeometry>
        </mxCell>
        <mxCell id="2eMlXJKE9RkkuXGHtKKb-12" value="Task" style="rounded=0;whiteSpace=wrap;html=1;" parent="1" vertex="1">
          <mxGeometry x="80" y="280" width="120" height="60" as="geometry" />
        </mxCell>
        <mxCell id="2eMlXJKE9RkkuXGHtKKb-13" value="User" style="rounded=0;whiteSpace=wrap;html=1;" parent="1" vertex="1">
          <mxGeometry x="280" y="280" width="120" height="60" as="geometry" />
        </mxCell>
        <mxCell id="2eMlXJKE9RkkuXGHtKKb-22" value="Status" style="text;html=1;align=left;verticalAlign=middle;resizable=0;points=[];autosize=1;strokeColor=none;fillColor=none;" parent="1" vertex="1">
          <mxGeometry x="120" y="368" width="60" height="30" as="geometry" />
        </mxCell>
        <mxCell id="2eMlXJKE9RkkuXGHtKKb-23" value="Worker&#39;s Cost" style="text;html=1;align=left;verticalAlign=middle;resizable=0;points=[];autosize=1;strokeColor=none;fillColor=none;" parent="1" vertex="1">
          <mxGeometry x="120" y="399" width="100" height="30" as="geometry" />
        </mxCell>
        <mxCell id="2eMlXJKE9RkkuXGHtKKb-30" value="Worker&#39;s Revenue" style="text;html=1;align=left;verticalAlign=middle;resizable=0;points=[];autosize=1;strokeColor=none;fillColor=none;" parent="1" vertex="1">
          <mxGeometry x="120" y="429" width="120" height="30" as="geometry" />
        </mxCell>
        <mxCell id="2eMlXJKE9RkkuXGHtKKb-33" style="edgeStyle=orthogonalEdgeStyle;rounded=0;orthogonalLoop=1;jettySize=auto;html=1;exitX=0;exitY=1;exitDx=0;exitDy=0;entryX=-0.06;entryY=0.5;entryDx=0;entryDy=0;entryPerimeter=0;endArrow=none;endFill=0;" parent="1" edge="1">
          <mxGeometry relative="1" as="geometry">
            <mxPoint x="117" y="384" as="targetPoint" />
            <mxPoint x="80" y="310" as="sourcePoint" />
            <Array as="points">
              <mxPoint x="80" y="384" />
            </Array>
          </mxGeometry>
        </mxCell>
        <mxCell id="2eMlXJKE9RkkuXGHtKKb-34" style="edgeStyle=orthogonalEdgeStyle;rounded=0;orthogonalLoop=1;jettySize=auto;html=1;exitX=0;exitY=1;exitDx=0;exitDy=0;entryX=-0.06;entryY=0.5;entryDx=0;entryDy=0;entryPerimeter=0;endArrow=none;endFill=0;" parent="1" edge="1">
          <mxGeometry relative="1" as="geometry">
            <mxPoint x="117" y="442" as="targetPoint" />
            <mxPoint x="80" y="368" as="sourcePoint" />
            <Array as="points">
              <mxPoint x="80" y="442" />
            </Array>
          </mxGeometry>
        </mxCell>
        <mxCell id="2eMlXJKE9RkkuXGHtKKb-35" value="User" style="rounded=0;whiteSpace=wrap;html=1;" parent="1" vertex="1">
          <mxGeometry x="620" y="80" width="140" height="60" as="geometry" />
        </mxCell>
        <mxCell id="2eMlXJKE9RkkuXGHtKKb-38" value="" style="edgeStyle=orthogonalEdgeStyle;rounded=0;orthogonalLoop=1;jettySize=auto;html=1;" parent="1" source="2eMlXJKE9RkkuXGHtKKb-36" target="2eMlXJKE9RkkuXGHtKKb-37" edge="1">
          <mxGeometry relative="1" as="geometry" />
        </mxCell>
        <mxCell id="2eMlXJKE9RkkuXGHtKKb-40" value="" style="edgeStyle=orthogonalEdgeStyle;rounded=0;orthogonalLoop=1;jettySize=auto;html=1;" parent="1" source="2eMlXJKE9RkkuXGHtKKb-36" target="2eMlXJKE9RkkuXGHtKKb-35" edge="1">
          <mxGeometry relative="1" as="geometry" />
        </mxCell>
        <mxCell id="2eMlXJKE9RkkuXGHtKKb-70" style="edgeStyle=orthogonalEdgeStyle;rounded=0;orthogonalLoop=1;jettySize=auto;html=1;exitX=0;exitY=0.5;exitDx=0;exitDy=0;entryX=1;entryY=0.5;entryDx=0;entryDy=0;startArrow=blockThin;startFill=0;endArrow=blockThin;endFill=0;dashed=1;" parent="1" source="2eMlXJKE9RkkuXGHtKKb-36" target="2eMlXJKE9RkkuXGHtKKb-68" edge="1">
          <mxGeometry relative="1" as="geometry">
            <Array as="points">
              <mxPoint x="440" y="230" />
              <mxPoint x="440" y="700" />
            </Array>
          </mxGeometry>
        </mxCell>
        <mxCell id="2eMlXJKE9RkkuXGHtKKb-36" value="Account" style="rounded=0;whiteSpace=wrap;html=1;" parent="1" vertex="1">
          <mxGeometry x="620" y="200" width="140" height="60" as="geometry" />
        </mxCell>
        <mxCell id="2eMlXJKE9RkkuXGHtKKb-37" value="Balance" style="rounded=0;whiteSpace=wrap;html=1;" parent="1" vertex="1">
          <mxGeometry x="815" y="200" width="120" height="60" as="geometry" />
        </mxCell>
        <mxCell id="2eMlXJKE9RkkuXGHtKKb-41" value="belongs to" style="edgeLabel;html=1;align=center;verticalAlign=middle;resizable=0;points=[];" parent="1" vertex="1" connectable="0">
          <mxGeometry x="720" y="170" as="geometry" />
        </mxCell>
        <mxCell id="2eMlXJKE9RkkuXGHtKKb-53" style="edgeStyle=orthogonalEdgeStyle;rounded=0;orthogonalLoop=1;jettySize=auto;html=1;exitX=0.5;exitY=0;exitDx=0;exitDy=0;entryX=0.5;entryY=1;entryDx=0;entryDy=0;" parent="1" source="2eMlXJKE9RkkuXGHtKKb-42" target="2eMlXJKE9RkkuXGHtKKb-36" edge="1">
          <mxGeometry relative="1" as="geometry" />
        </mxCell>
        <mxCell id="2eMlXJKE9RkkuXGHtKKb-66" style="edgeStyle=orthogonalEdgeStyle;rounded=0;orthogonalLoop=1;jettySize=auto;html=1;exitX=0;exitY=0.5;exitDx=0;exitDy=0;entryX=0.5;entryY=0;entryDx=0;entryDy=0;endArrow=blockThin;endFill=0;startArrow=blockThin;startFill=0;dashed=1;jumpStyle=arc;" parent="1" source="2eMlXJKE9RkkuXGHtKKb-42" target="2eMlXJKE9RkkuXGHtKKb-57" edge="1">
          <mxGeometry relative="1" as="geometry" />
        </mxCell>
        <mxCell id="Ur6JNkduuCommPyrhhBe-3" value="" style="edgeStyle=orthogonalEdgeStyle;rounded=0;orthogonalLoop=1;jettySize=auto;html=1;" edge="1" parent="1" source="2eMlXJKE9RkkuXGHtKKb-42" target="Ur6JNkduuCommPyrhhBe-1">
          <mxGeometry relative="1" as="geometry" />
        </mxCell>
        <mxCell id="2eMlXJKE9RkkuXGHtKKb-42" value="Transfer&lt;br&gt;(изменение баланса)" style="rounded=0;whiteSpace=wrap;html=1;" parent="1" vertex="1">
          <mxGeometry x="620" y="320" width="140" height="60" as="geometry" />
        </mxCell>
        <mxCell id="2eMlXJKE9RkkuXGHtKKb-44" style="edgeStyle=orthogonalEdgeStyle;rounded=0;orthogonalLoop=1;jettySize=auto;html=1;exitX=0;exitY=1;exitDx=0;exitDy=0;entryX=-0.06;entryY=0.5;entryDx=0;entryDy=0;entryPerimeter=0;endArrow=none;endFill=0;" parent="1" target="2eMlXJKE9RkkuXGHtKKb-46" edge="1">
          <mxGeometry relative="1" as="geometry">
            <mxPoint x="620" y="460" as="targetPoint" />
            <mxPoint x="620" y="380" as="sourcePoint" />
            <Array as="points">
              <mxPoint x="620" y="414" />
            </Array>
          </mxGeometry>
        </mxCell>
        <mxCell id="2eMlXJKE9RkkuXGHtKKb-46" value="Amount" style="text;html=1;align=left;verticalAlign=middle;resizable=0;points=[];autosize=1;strokeColor=none;fillColor=none;" parent="1" vertex="1">
          <mxGeometry x="660" y="399" width="60" height="30" as="geometry" />
        </mxCell>
        <mxCell id="2eMlXJKE9RkkuXGHtKKb-47" value="Date" style="text;html=1;align=left;verticalAlign=middle;resizable=0;points=[];autosize=1;strokeColor=none;fillColor=none;" parent="1" vertex="1">
          <mxGeometry x="660" y="429" width="50" height="30" as="geometry" />
        </mxCell>
        <mxCell id="2eMlXJKE9RkkuXGHtKKb-49" style="edgeStyle=orthogonalEdgeStyle;rounded=0;orthogonalLoop=1;jettySize=auto;html=1;exitX=0;exitY=1;exitDx=0;exitDy=0;entryX=-0.02;entryY=0.633;entryDx=0;entryDy=0;entryPerimeter=0;endArrow=none;endFill=0;" parent="1" target="2eMlXJKE9RkkuXGHtKKb-47" edge="1">
          <mxGeometry relative="1" as="geometry">
            <mxPoint x="656" y="414" as="targetPoint" />
            <mxPoint x="620" y="380" as="sourcePoint" />
            <Array as="points">
              <mxPoint x="620" y="448" />
            </Array>
          </mxGeometry>
        </mxCell>
        <mxCell id="2eMlXJKE9RkkuXGHtKKb-54" value="is related to" style="edgeLabel;html=1;align=center;verticalAlign=middle;resizable=0;points=[];" parent="1" vertex="1" connectable="0">
          <mxGeometry x="720" y="290" as="geometry" />
        </mxCell>
        <mxCell id="2eMlXJKE9RkkuXGHtKKb-56" value="User" style="rounded=0;whiteSpace=wrap;html=1;" parent="1" vertex="1">
          <mxGeometry x="80" y="560" width="120" height="60" as="geometry" />
        </mxCell>
        <mxCell id="Ur6JNkduuCommPyrhhBe-4" value="" style="edgeStyle=orthogonalEdgeStyle;rounded=0;orthogonalLoop=1;jettySize=auto;html=1;" edge="1" parent="1" source="2eMlXJKE9RkkuXGHtKKb-57" target="2eMlXJKE9RkkuXGHtKKb-58">
          <mxGeometry relative="1" as="geometry" />
        </mxCell>
        <mxCell id="2eMlXJKE9RkkuXGHtKKb-57" value="Transfer" style="rounded=0;whiteSpace=wrap;html=1;" parent="1" vertex="1">
          <mxGeometry x="480" y="560" width="120" height="60" as="geometry" />
        </mxCell>
        <mxCell id="2eMlXJKE9RkkuXGHtKKb-58" value="Task" style="rounded=0;whiteSpace=wrap;html=1;" parent="1" vertex="1">
          <mxGeometry x="280" y="560" width="120" height="60" as="geometry" />
        </mxCell>
        <mxCell id="2eMlXJKE9RkkuXGHtKKb-62" value="" style="edgeStyle=orthogonalEdgeStyle;rounded=0;orthogonalLoop=1;jettySize=auto;html=1;" parent="1" source="2eMlXJKE9RkkuXGHtKKb-59" target="2eMlXJKE9RkkuXGHtKKb-37" edge="1">
          <mxGeometry relative="1" as="geometry" />
        </mxCell>
        <mxCell id="2eMlXJKE9RkkuXGHtKKb-84" style="edgeStyle=orthogonalEdgeStyle;rounded=0;orthogonalLoop=1;jettySize=auto;html=1;exitX=0.75;exitY=1;exitDx=0;exitDy=0;entryX=1;entryY=0.5;entryDx=0;entryDy=0;startArrow=blockThin;startFill=0;endArrow=blockThin;endFill=0;dashed=1;" parent="1" source="2eMlXJKE9RkkuXGHtKKb-59" target="2eMlXJKE9RkkuXGHtKKb-83" edge="1">
          <mxGeometry relative="1" as="geometry" />
        </mxCell>
        <mxCell id="2eMlXJKE9RkkuXGHtKKb-59" value="Outcome&lt;br&gt;(выплаты сотруднику)" style="rounded=0;whiteSpace=wrap;html=1;" parent="1" vertex="1">
          <mxGeometry x="1000" y="200" width="140" height="60" as="geometry" />
        </mxCell>
        <mxCell id="2eMlXJKE9RkkuXGHtKKb-63" value="is related to" style="edgeLabel;html=1;align=center;verticalAlign=middle;resizable=0;points=[];" parent="1" vertex="1" connectable="0">
          <mxGeometry x="970" y="220" as="geometry" />
        </mxCell>
        <mxCell id="2eMlXJKE9RkkuXGHtKKb-67" value="" style="edgeStyle=orthogonalEdgeStyle;rounded=0;orthogonalLoop=1;jettySize=auto;html=1;" parent="1" source="2eMlXJKE9RkkuXGHtKKb-68" target="2eMlXJKE9RkkuXGHtKKb-69" edge="1">
          <mxGeometry relative="1" as="geometry" />
        </mxCell>
        <mxCell id="Ur6JNkduuCommPyrhhBe-7" style="edgeStyle=orthogonalEdgeStyle;rounded=0;orthogonalLoop=1;jettySize=auto;html=1;exitX=0;exitY=0.25;exitDx=0;exitDy=0;entryX=1;entryY=0.75;entryDx=0;entryDy=0;" edge="1" parent="1" source="2eMlXJKE9RkkuXGHtKKb-68" target="2eMlXJKE9RkkuXGHtKKb-56">
          <mxGeometry relative="1" as="geometry" />
        </mxCell>
        <mxCell id="2eMlXJKE9RkkuXGHtKKb-68" value="Account" style="rounded=0;whiteSpace=wrap;html=1;" parent="1" vertex="1">
          <mxGeometry x="280" y="670" width="120" height="60" as="geometry" />
        </mxCell>
        <mxCell id="2eMlXJKE9RkkuXGHtKKb-69" value="Balance" style="rounded=0;whiteSpace=wrap;html=1;" parent="1" vertex="1">
          <mxGeometry x="80" y="670" width="120" height="60" as="geometry" />
        </mxCell>
        <mxCell id="2eMlXJKE9RkkuXGHtKKb-74" value="SSO / Auth Provider" style="text;html=1;align=left;verticalAlign=middle;resizable=0;points=[];autosize=1;strokeColor=none;fillColor=none;" parent="1" vertex="1">
          <mxGeometry x="60" y="30" width="130" height="30" as="geometry" />
        </mxCell>
        <mxCell id="2eMlXJKE9RkkuXGHtKKb-75" value="Accounting" style="text;html=1;align=left;verticalAlign=middle;resizable=0;points=[];autosize=1;strokeColor=none;fillColor=none;" parent="1" vertex="1">
          <mxGeometry x="600" y="30" width="80" height="30" as="geometry" />
        </mxCell>
        <mxCell id="2eMlXJKE9RkkuXGHtKKb-76" value="Task Tracker" style="text;html=1;align=left;verticalAlign=middle;resizable=0;points=[];autosize=1;strokeColor=none;fillColor=none;" parent="1" vertex="1">
          <mxGeometry x="60" y="228" width="90" height="30" as="geometry" />
        </mxCell>
        <mxCell id="2eMlXJKE9RkkuXGHtKKb-77" value="Analytics" style="text;html=1;align=left;verticalAlign=middle;resizable=0;points=[];autosize=1;strokeColor=none;fillColor=none;" parent="1" vertex="1">
          <mxGeometry x="60" y="510" width="70" height="30" as="geometry" />
        </mxCell>
        <mxCell id="2eMlXJKE9RkkuXGHtKKb-79" style="edgeStyle=orthogonalEdgeStyle;rounded=0;orthogonalLoop=1;jettySize=auto;html=1;exitX=0;exitY=1;exitDx=0;exitDy=0;entryX=-0.06;entryY=0.5;entryDx=0;entryDy=0;entryPerimeter=0;endArrow=none;endFill=0;" parent="1" target="2eMlXJKE9RkkuXGHtKKb-80" edge="1">
          <mxGeometry relative="1" as="geometry">
            <mxPoint x="1000" y="341" as="targetPoint" />
            <mxPoint x="1000" y="261" as="sourcePoint" />
            <Array as="points">
              <mxPoint x="1000" y="295" />
            </Array>
          </mxGeometry>
        </mxCell>
        <mxCell id="2eMlXJKE9RkkuXGHtKKb-80" value="Amount" style="text;html=1;align=left;verticalAlign=middle;resizable=0;points=[];autosize=1;strokeColor=none;fillColor=none;" parent="1" vertex="1">
          <mxGeometry x="1040" y="280" width="60" height="30" as="geometry" />
        </mxCell>
        <mxCell id="2eMlXJKE9RkkuXGHtKKb-81" value="Date" style="text;html=1;align=left;verticalAlign=middle;resizable=0;points=[];autosize=1;strokeColor=none;fillColor=none;" parent="1" vertex="1">
          <mxGeometry x="1040" y="310" width="50" height="30" as="geometry" />
        </mxCell>
        <mxCell id="2eMlXJKE9RkkuXGHtKKb-82" style="edgeStyle=orthogonalEdgeStyle;rounded=0;orthogonalLoop=1;jettySize=auto;html=1;exitX=0;exitY=1;exitDx=0;exitDy=0;entryX=-0.02;entryY=0.633;entryDx=0;entryDy=0;entryPerimeter=0;endArrow=none;endFill=0;" parent="1" target="2eMlXJKE9RkkuXGHtKKb-81" edge="1">
          <mxGeometry relative="1" as="geometry">
            <mxPoint x="1036" y="295" as="targetPoint" />
            <mxPoint x="1000" y="261" as="sourcePoint" />
            <Array as="points">
              <mxPoint x="1000" y="329" />
            </Array>
          </mxGeometry>
        </mxCell>
        <mxCell id="2eMlXJKE9RkkuXGHtKKb-83" value="Outcome" style="rounded=0;whiteSpace=wrap;html=1;" parent="1" vertex="1">
          <mxGeometry x="480" y="670" width="120" height="60" as="geometry" />
        </mxCell>
        <mxCell id="Ur6JNkduuCommPyrhhBe-1" value="Task" style="rounded=0;whiteSpace=wrap;html=1;" vertex="1" parent="1">
          <mxGeometry x="820" y="320" width="120" height="60" as="geometry" />
        </mxCell>
        <mxCell id="Ur6JNkduuCommPyrhhBe-8" value="is related to" style="edgeLabel;html=1;align=center;verticalAlign=middle;resizable=0;points=[];" vertex="1" connectable="0" parent="1">
          <mxGeometry x="790" y="340" as="geometry" />
        </mxCell>
      </root>
    </mxGraphModel>
  </diagram>
</mxfile>
